<svg width="536" height="200" viewBox="0 0 536 200" fill="none" xmlns="http://www.w3.org/2000/svg">
<path d="M0 1.66434V200H446.055C446.055 200 632.441 189.528 468.6 126.175C304.759 62.8217 164.188 81.9699 227.165 47.0612C290.143 12.1525 15.1045 -5.77681 0 1.66434Z" fill="url(#paint0_linear)"/>
<path d="M43.0225 162.262H26.034V194.671H57.2017V169.814L43.0225 162.262Z" fill="#18303E"/>
<path d="M140.17 79.8977L140.901 113.233L148.444 115.331C148.444 115.331 168.489 89.3374 166.196 51.504L158.653 49.4064L144.205 65.3915L140.17 79.8977Z" fill="#EFB56A"/>
<path d="M144.678 110.297L144.023 80.3811L147.663 67.2944L159.911 53.7434L162.488 54.4596C163.403 83.1264 151.138 104.385 146.85 110.901L144.678 110.297Z" fill="#18303E"/>
<path d="M49.0393 39.2358C45.6327 38.2883 42.1033 40.2814 41.1557 43.6879L38.9173 51.7362L39.1146 63.5472L47.1252 65.7753L52.7305 55.5779L140.17 79.8977L144.124 65.6822L49.0393 39.2358Z" fill="#18303E"/>
<path d="M52.183 46.0592C52.183 48.5886 50.1325 50.6397 47.6027 50.6397C45.0732 50.6397 43.0223 48.5886 43.0223 46.0592C43.0223 43.5298 45.0732 41.4794 47.6027 41.4794C50.1325 41.4794 52.183 43.5298 52.183 46.0592Z" fill="#EFB56A"/>
<path d="M49.8735 46.0592C49.8735 47.3137 48.8568 48.3297 47.6027 48.3297C46.3488 48.3297 45.3323 47.3137 45.3323 46.0592C45.3323 44.8055 46.3488 43.7887 47.6027 43.7887C48.8568 43.7887 49.8735 44.8055 49.8735 46.0592Z" fill="#B4C1C8"/>
<path d="M52.183 176.328C52.183 178.857 50.1325 180.908 47.6027 180.908C45.0732 180.908 43.0223 178.857 43.0223 176.328C43.0223 173.798 45.0732 171.747 47.6027 171.747C50.1325 171.747 52.183 173.798 52.183 176.328Z" fill="#EFB56A"/>
<path d="M49.8735 176.328C49.8735 177.581 48.8568 178.598 47.6027 178.598C46.3488 178.598 45.3323 177.581 45.3323 176.328C45.3323 175.074 46.3488 174.057 47.6027 174.057C48.8568 174.057 49.8735 175.074 49.8735 176.328Z" fill="#B4C1C8"/>
<path d="M70.2964 191.509L71.1381 185.108L97.8548 175.155L124.571 185.108L125.413 191.509H70.2964ZM90.5508 81.2941L92.7754 70.9047H102.934L105.159 81.2941H110.922L111.009 81.9538L97.8548 86.8539L84.7003 81.9538L84.7871 81.2941H90.5508ZM122.077 166.131L124.238 182.574L101.09 173.95L122.077 166.131ZM94.6198 145.32L75.4293 152.469L77.2214 138.838L94.6198 145.32ZM118.488 138.838L120.28 152.469L101.09 145.32L118.488 138.838ZM97.8548 117.894L116.656 124.899L118.186 136.54L97.8548 144.115L77.5234 136.54L79.0538 124.899L97.8548 117.894ZM94.6198 116.689L79.3875 122.365L80.8099 111.544L94.6198 116.689ZM114.9 111.544L116.322 122.365L101.09 116.689L114.9 111.544ZM101.09 88.059L111.311 84.2511L112.365 92.2598L101.09 88.059ZM83.345 92.2598L84.3984 84.2511L94.6198 88.059L83.345 92.2598ZM97.8548 89.264L112.698 94.7942L114.598 109.247L97.8548 115.484L81.1119 109.247L83.0119 94.7942L97.8548 89.264ZM94.6198 173.95L71.4712 182.574L73.633 166.131L94.6198 173.95ZM73.935 163.834L75.0963 155.004L97.8548 146.525L120.613 155.004L121.775 163.834L97.8548 172.745L73.935 163.834ZM113.696 78.1318H107.715L105.49 67.7424H90.2192L87.9946 78.1318H82.0136L66.6917 194.671H129.018L113.696 78.1318Z" fill="#B4C1C8"/>
<path d="M46.4737 176.328H48.7323V46.0592H46.4737V176.328Z" fill="#B4C1C8"/>
<path d="M17 199H171.799V194.672H17V199Z" fill="#EFB56A"/>
<path d="M330.457 122.032C330.457 125.163 319.272 127.701 305.475 127.701C291.678 127.701 280.493 125.163 280.493 122.032C280.493 118.9 291.678 116.362 305.475 116.362C319.272 116.362 330.457 118.9 330.457 122.032Z" fill="#F68916"/>
<path d="M330.457 122.032C330.457 125.163 319.272 127.701 305.475 127.701C291.678 127.701 280.493 125.163 280.493 122.032C280.493 118.9 291.678 116.362 305.475 116.362C319.272 116.362 330.457 118.9 330.457 122.032Z" fill="#F9A457"/>
<path d="M330.457 139.925C330.457 143.056 319.272 145.595 305.475 145.595C291.678 145.595 280.493 143.056 280.493 139.925C280.493 136.794 291.678 134.256 305.475 134.256C319.272 134.256 330.457 136.794 330.457 139.925Z" fill="#F68916"/>
<path d="M330.457 157.819C330.457 160.95 319.272 163.489 305.475 163.489C291.678 163.489 280.493 160.95 280.493 157.819C280.493 154.688 291.678 152.149 305.475 152.149C319.272 152.149 330.457 154.688 330.457 157.819Z" fill="#F68916"/>
<path d="M329.005 173.806V122.032H281.945V173.806C281.007 174.402 280.493 175.044 280.493 175.713C280.493 178.844 291.678 181.382 305.475 181.382C319.272 181.382 330.457 178.844 330.457 175.713C330.457 175.044 329.943 174.402 329.005 173.806Z" fill="#F9A457"/>
<path d="M305.475 116.724C290.748 116.724 280.855 119.468 280.855 122.032C280.855 124.595 290.748 127.339 305.475 127.339C320.202 127.339 330.095 124.595 330.095 122.032C330.095 119.468 320.202 116.724 305.475 116.724ZM305.475 128.063C293.017 128.063 280.131 125.807 280.131 122.032C280.131 118.256 293.017 116 305.475 116C317.933 116 330.819 118.256 330.819 122.032C330.819 125.807 317.933 128.063 305.475 128.063Z" fill="#F14A20"/>
<path d="M329.005 137.613V138.435C329.714 138.925 330.095 139.428 330.095 139.925C330.095 142.489 320.202 145.233 305.475 145.233C290.748 145.233 280.855 142.489 280.855 139.925C280.855 139.428 281.236 138.925 281.945 138.435V137.613C280.788 138.301 280.131 139.074 280.131 139.925C280.131 143.701 293.017 145.957 305.475 145.957C317.933 145.957 330.819 143.701 330.819 139.925C330.819 139.074 330.162 138.301 329.005 137.613Z" fill="#F14A20"/>
<path d="M329.005 155.507V156.329C329.714 156.819 330.095 157.322 330.095 157.819C330.095 160.382 320.202 163.127 305.475 163.127C290.748 163.127 280.855 160.382 280.855 157.819C280.855 157.322 281.236 156.819 281.945 156.329V155.507C280.788 156.195 280.131 156.968 280.131 157.819C280.131 161.595 293.017 163.851 305.475 163.851C317.933 163.851 330.819 161.595 330.819 157.819C330.819 156.968 330.162 156.195 329.005 155.507Z" fill="#F14A20"/>
<path d="M329.005 173.4V174.223C329.714 174.712 330.095 175.216 330.095 175.713C330.095 178.276 320.202 181.02 305.475 181.02C290.748 181.02 280.855 178.276 280.855 175.713C280.855 175.216 281.236 174.712 281.945 174.223V173.4C280.788 174.089 280.131 174.862 280.131 175.713C280.131 179.488 293.017 181.744 305.475 181.744C317.933 181.744 330.819 179.488 330.819 175.713C330.819 174.862 330.162 174.089 329.005 173.4Z" fill="#F14A20"/>
<path d="M289.023 122.539C287.104 122.539 285.548 122.312 285.548 122.032C285.548 121.751 287.104 121.524 289.023 121.524C290.943 121.524 292.499 121.751 292.499 122.032C292.499 122.312 290.943 122.539 289.023 122.539ZM289.023 121.004C286.524 121.004 284.498 121.464 284.498 122.032C284.498 122.599 286.524 123.059 289.023 123.059C291.523 123.059 293.549 122.599 293.549 122.032C293.549 121.464 291.523 121.004 289.023 121.004Z" fill="#F14A20"/>
<path d="M299.326 140.287C299.326 143.419 288.141 145.957 274.344 145.957C260.547 145.957 249.362 143.419 249.362 140.287C249.362 137.156 260.547 134.618 274.344 134.618C288.141 134.618 299.326 137.156 299.326 140.287Z" fill="#F68916"/>
<path d="M299.326 140.287C299.326 143.419 288.141 145.957 274.344 145.957C260.547 145.957 249.362 143.419 249.362 140.287C249.362 137.156 260.547 134.618 274.344 134.618C288.141 134.618 299.326 137.156 299.326 140.287Z" fill="#21565E"/>
<path d="M299.326 158.181C299.326 161.312 288.141 163.851 274.344 163.851C260.547 163.851 249.362 161.312 249.362 158.181C249.362 155.05 260.547 152.511 274.344 152.511C288.141 152.511 299.326 155.05 299.326 158.181Z" fill="#21565E"/>
<path d="M299.326 176.075C299.326 179.206 288.141 181.744 274.344 181.744C260.547 181.744 249.362 179.206 249.362 176.075C249.362 172.944 260.547 170.405 274.344 170.405C288.141 170.405 299.326 172.944 299.326 176.075Z" fill="#21565E"/>
<path d="M274.344 170.405V181.744C288.141 181.744 299.326 179.206 299.326 176.075C299.326 172.944 288.141 170.405 274.344 170.405Z" fill="#1C484F"/>
<path d="M274.344 152.511V163.851C288.141 163.851 299.326 161.312 299.326 158.181C299.326 155.05 288.141 152.511 274.344 152.511Z" fill="#1C484F"/>
<path d="M297.874 192.062V140.287H250.814V192.062C249.876 192.658 249.362 193.299 249.362 193.968C249.362 197.1 260.547 199.638 274.344 199.638C288.141 199.638 299.326 197.1 299.326 193.968C299.326 193.299 298.812 192.658 297.874 192.062Z" fill="#21565E"/>
<path d="M297.874 192.062V142.194C295.87 143.468 291.913 144.53 286.822 145.198V198.879C294.294 197.899 299.326 196.068 299.326 193.968C299.326 193.3 298.812 192.658 297.874 192.062Z" fill="#1C484F"/>
<path d="M274.344 134.979C259.617 134.979 249.724 137.724 249.724 140.287C249.724 142.85 259.617 145.595 274.344 145.595C289.071 145.595 298.964 142.85 298.964 140.287C298.964 137.724 289.071 134.979 274.344 134.979ZM274.344 146.319C261.886 146.319 249 144.063 249 140.287C249 136.512 261.886 134.256 274.344 134.256C286.802 134.256 299.688 136.512 299.688 140.287C299.688 144.063 286.802 146.319 274.344 146.319Z" fill="#2E7E8B"/>
<path d="M297.874 155.868V156.691C298.583 157.18 298.964 157.684 298.964 158.181C298.964 160.744 289.071 163.489 274.344 163.489C259.617 163.489 249.724 160.744 249.724 158.181C249.724 157.684 250.105 157.18 250.814 156.691V155.868C249.657 156.557 249 157.33 249 158.181C249 161.957 261.886 164.212 274.344 164.212C286.802 164.212 299.688 161.957 299.688 158.181C299.688 157.33 299.031 156.557 297.874 155.868Z" fill="#2E7E8B"/>
<path d="M297.874 173.762V174.585C298.583 175.074 298.964 175.578 298.964 176.075C298.964 178.638 289.071 181.382 274.344 181.382C259.617 181.382 249.724 178.638 249.724 176.075C249.724 175.578 250.105 175.074 250.814 174.585V173.762C249.657 174.45 249 175.224 249 176.075C249 179.85 261.886 182.106 274.344 182.106C286.802 182.106 299.688 179.85 299.688 176.075C299.688 175.224 299.031 174.45 297.874 173.762Z" fill="#2E7E8B"/>
<path d="M297.874 191.656V192.479C298.583 192.968 298.964 193.471 298.964 193.968C298.964 196.532 289.071 199.276 274.344 199.276C259.617 199.276 249.724 196.532 249.724 193.968C249.724 193.471 250.105 192.968 250.814 192.479V191.656C249.657 192.344 249 193.118 249 193.968C249 197.744 261.886 200 274.344 200C286.802 200 299.688 197.744 299.688 193.968C299.688 193.118 299.031 192.344 297.874 191.656Z" fill="#2E7E8B"/>
<path d="M257.892 140.794C255.973 140.794 254.417 140.567 254.417 140.287C254.417 140.007 255.973 139.78 257.892 139.78C259.812 139.78 261.368 140.007 261.368 140.287C261.368 140.567 259.812 140.794 257.892 140.794ZM257.892 139.26C255.393 139.26 253.367 139.72 253.367 140.287C253.367 140.854 255.393 141.314 257.892 141.314C260.392 141.314 262.418 140.854 262.418 140.287C262.418 139.72 260.392 139.26 257.892 139.26Z" fill="#2E7E8B"/>
<path d="M282.148 172.799C282.148 177.109 278.654 180.603 274.344 180.603C270.034 180.603 266.54 177.109 266.54 172.799C266.54 168.49 270.034 164.996 274.344 164.996C278.654 164.996 282.148 168.49 282.148 172.799Z" fill="#EFB56A"/>
<path d="M274.344 167.362C274.344 167.362 271.569 171.718 271.569 174.928C271.569 175.733 271.743 176.364 272.004 176.859C272.973 178.697 275.714 178.697 276.684 176.859C276.945 176.364 277.119 175.733 277.119 174.928C277.119 171.718 274.344 167.362 274.344 167.362Z" fill="#18303E"/>
<defs>
<linearGradient id="paint0_linear" x1="356" y1="24" x2="268" y2="200" gradientUnits="userSpaceOnUse">
<stop stop-color="#C02425"/>
<stop offset="1" stop-color="#F0CB35" stop-opacity="0.4"/>
</linearGradient>
</defs>
</svg>
