<svg width="108" height="108" viewBox="0 0 108 108" fill="none" xmlns="http://www.w3.org/2000/svg">
<path d="M97.8749 93.825L81.9 94.0501L73.8 108L63.2248 90.0001L55.7998 77.3999L80.0998 63.2249L87.5248 76.0499L97.8749 93.825Z" fill="#FF7058"/>
<path d="M52.2001 77.3999L44.7751 90.0001L34.1999 108L26.0999 94.0501L10.125 93.825L20.4751 76.0499L27.9001 63.2249L52.2001 77.3999Z" fill="#FF7058"/>
<path opacity="0.1" d="M27.9005 63.2249L52.2005 77.3999L44.7755 89.9999C43.8755 89.3249 43.2005 88.6499 42.5255 88.4248C42.3004 88.4248 42.0755 88.4248 41.8505 88.4248C40.9504 88.4248 39.6004 88.6499 38.4755 88.8747C36.9004 89.3247 35.3255 89.5497 33.7505 89.5497C32.1754 89.5497 30.8254 89.3247 29.4754 88.4248C26.5503 86.6249 25.4254 83.4747 24.5253 80.7747C24.0754 79.1997 23.4004 77.6248 22.9503 76.9498C22.5003 76.4999 21.6003 76.0497 20.7002 75.8249L27.9005 63.2249Z" fill="#231F20"/>
<path opacity="0.1" d="M87.5263 76.0499C86.6262 76.4999 85.7264 76.7249 85.2762 77.1749C84.6012 77.8499 84.1513 79.4249 83.7012 80.9998C82.8011 83.9249 81.6762 87.0748 78.7511 88.6499C77.6262 89.3249 76.2762 89.7748 74.476 89.7748C72.9009 89.7748 71.3261 89.5497 69.751 89.0998C68.401 88.8747 67.2761 88.6499 66.376 88.6499C66.1509 88.6499 65.9261 88.6499 65.701 88.6499C65.026 88.8749 64.351 89.3249 63.4509 90.2249L56.0264 77.625L80.3264 63.45L87.5263 76.0499Z" fill="#231F20"/>
<path d="M99.8996 45.9C99.8996 49.7249 94.2745 52.8751 93.3747 56.4749C92.4746 60.075 95.6245 65.7001 93.8246 68.85C92.0247 72.225 85.4995 71.9999 82.7995 74.6999C80.0995 77.3999 80.3246 83.7 76.9496 85.725C73.7997 87.5249 68.1746 84.375 64.5745 85.2751C60.9745 86.1751 57.8245 91.8 53.9996 91.8C50.1747 91.8 47.0245 86.1749 43.4247 85.2751C39.8246 84.375 34.1995 87.5249 31.0496 85.725C27.6746 83.9251 27.8997 77.3999 25.1997 74.6999C22.4997 71.9999 16.1996 72.225 14.1746 68.85C12.3747 65.7001 15.5246 60.075 14.6245 56.4749C13.7245 52.8749 8.09961 49.7249 8.09961 45.9C8.09961 42.0751 13.7247 38.9249 14.6245 35.3251C15.5244 31.7252 12.3747 26.0999 14.1746 22.95C15.9745 19.575 22.4997 19.8001 25.1997 17.1001C27.8997 14.4001 27.6746 8.1 31.0496 6.075C34.1995 4.27507 39.8246 7.425 43.4247 6.52493C47.0245 5.62507 50.1747 0 53.9996 0C57.8245 0 60.9747 5.62507 64.5745 6.52493C68.1746 7.425 73.7997 4.27507 76.9496 6.075C80.3246 7.87493 80.0995 14.4001 82.7995 17.1001C85.4995 19.8001 91.7996 19.575 93.8246 22.95C95.6245 26.0999 92.4746 31.725 93.3747 35.3251C94.2747 38.9251 99.8996 42.0751 99.8996 45.9Z" fill="#FFD15C"/>
<path d="M54.0001 27L58.5 40.7251H73.1252L61.2 49.275L65.7002 63.2249L54.0001 54.675L42.3 63.2249L46.8002 49.275L34.875 40.7251H49.5002L54.0001 27Z" fill="white"/>
<path d="M54.0001 78.0749C36.2251 78.0749 21.8252 63.6749 21.8252 45.9C21.8252 28.1251 36.2251 13.7251 54.0001 13.7251C71.7752 13.7251 86.1751 28.1249 86.1751 45.9C86.1751 63.6751 71.7752 78.0749 54.0001 78.0749ZM54.0001 20.4751C40.0502 20.4751 28.5752 31.9501 28.5752 45.9C28.5752 59.8499 40.0502 71.3249 54.0001 71.3249C67.9501 71.3249 79.4251 59.8499 79.4251 45.9C79.4251 31.9501 67.9501 20.4751 54.0001 20.4751Z" fill="#FF7058"/>
<path opacity="0.1" d="M54.0001 78.0749C36.6752 78.0749 22.5002 64.125 21.8252 47.0249C21.8252 47.4749 21.8252 47.6999 21.8252 48.1499C21.8252 65.9249 36.2253 80.3248 54.0001 80.3248C71.775 80.3248 86.1751 65.9247 86.1751 48.1499C86.1751 47.6999 86.1751 47.4749 86.1751 47.0249C85.5001 64.3501 71.3251 78.0749 54.0001 78.0749Z" fill="#231F20"/>
</svg>
