<svg width="16" height="16" viewBox="0 0 16 16" fill="none" xmlns="http://www.w3.org/2000/svg">
<g clip-path="url(#clip0)">
<path d="M14.9269 4.00063C12.7181 0.174963 7.82603 -1.13589 4.00067 1.07327C0.175001 3.2817 -1.1359 8.17359 1.07325 11.9991C3.28169 15.8248 8.17363 17.1358 11.999 14.9269C15.8248 12.7177 17.1363 7.82604 14.9269 4.00063ZM11.1994 13.541C8.13929 15.3084 4.22538 14.2597 2.45853 11.199C0.691271 8.13889 1.74037 4.22504 4.80055 2.45854C7.86083 0.691284 11.7745 1.73992 13.5415 4.80051C15.3085 7.86104 14.2597 11.7741 11.1994 13.541ZM10.8795 7.67484L6.69114 5.23211C6.30947 5.00928 6.00161 5.18743 6.00375 5.62892L6.0252 10.4775C6.02713 10.9189 6.33876 11.0986 6.72156 10.8775L10.8779 8.47783C11.2602 8.25714 11.2611 7.89767 10.8795 7.67484Z" fill="#47B8E0" fill-opacity="0.76"/>
</g>
<defs>
<clipPath id="clip0">
<rect width="16" height="16" fill="white"/>
</clipPath>
</defs>
</svg>
