<svg width="68" height="68" viewBox="0 0 68 68" fill="none" xmlns="http://www.w3.org/2000/svg">
<path d="M68 34.0008C68 15.2216 52.7775 0.000335694 34.0004 0.000335694C15.2225 0.000198641 0 15.2213 0 34.0008C0 52.7773 15.2225 67.9997 34.0005 67.9997C52.7775 67.9995 68 52.7772 68 34.0008Z" fill="#FF7473" fill-opacity="0.68"/>
<path d="M50.82 32.2406L26.8427 17.5178C26.1881 17.1157 25.3268 17.0983 24.6566 17.4737C23.9742 17.8554 23.5504 18.5782 23.5504 19.3598V48.6892C23.5504 49.4694 23.973 50.1917 24.6531 50.5739C24.9756 50.7549 25.3417 50.8508 25.7119 50.8508C26.1089 50.8508 26.4977 50.7416 26.8364 50.5352L50.8134 35.9286C51.4517 35.5399 51.849 34.8341 51.8503 34.0866C51.8516 33.3392 51.4569 32.6318 50.82 32.2406Z" fill="white"/>
</svg>
