<svg width="112" height="112" viewBox="0 0 112 112" fill="none" xmlns="http://www.w3.org/2000/svg">
<g clip-path="url(#clip0)">
<path d="M112 56.0007C112 25.0703 86.9277 1.5244e-09 56.0007 1.5244e-09C25.0723 -0.000225733 0 25.0699 0 56.0007C0 86.9268 25.0723 111.999 56.0009 111.999C86.9277 111.999 112 86.9266 112 56.0007Z" fill="white" fill-opacity="0.32"/>
<path d="M83.7037 53.1022L44.2117 28.8529C43.1336 28.1906 41.7148 28.1619 40.611 28.7802C39.487 29.4089 38.7891 30.5994 38.7891 31.8868V80.194C38.7891 81.4791 39.485 82.6687 40.6053 83.2983C41.1365 83.5962 41.7394 83.7543 42.3491 83.7543C43.0031 83.7543 43.6435 83.5743 44.2013 83.2344L83.6929 59.1765C84.7441 58.5363 85.3985 57.3738 85.4006 56.1426C85.4028 54.9117 84.7527 53.7465 83.7037 53.1022Z" fill="white"/>
</g>
<defs>
<clipPath id="clip0">
<rect width="112" height="112" fill="white"/>
</clipPath>
</defs>
</svg>
